<?xml version="1.0" standalone="no"?>
<!DOCTYPE svg PUBLIC "-//W3C//DTD SVG 20010904//EN"
 "http://www.w3.org/TR/2001/REC-SVG-20010904/DTD/svg10.dtd">
<svg version="1.0" xmlns="http://www.w3.org/2000/svg"
 width="800.000000pt" height="800.000000pt" viewBox="0 0 800.000000 800.000000"
 preserveAspectRatio="xMidYMid meet">
<metadata>
Created by potrace 1.11, written by Peter Selinger 2001-2013
</metadata>
<g transform="translate(0.000000,800.000000) scale(0.100000,-0.100000)"
fill="#000000" stroke="none">
<path d="M3512 7419 c-221 -28 -425 -160 -477 -308 -21 -61 -19 -166 5 -243
11 -34 20 -68 20 -74 0 -7 -43 -13 -117 -18 -213 -12 -311 -45 -408 -137 -81
-76 -108 -136 -113 -244 -3 -73 0 -100 16 -143 11 -28 17 -54 13 -57 -4 -2
-29 -9 -56 -15 -100 -22 -212 -93 -347 -222 -83 -77 -87 -100 -30 -169 20 -25
53 -70 74 -100 36 -54 36 -55 41 -179 3 -113 7 -132 35 -197 18 -39 32 -74 32
-77 0 -3 -29 -37 -64 -76 -147 -160 -238 -346 -261 -535 -5 -38 -16 -67 -36
-93 -99 -128 -119 -202 -84 -318 14 -49 40 -81 127 -160 25 -22 39 -48 51 -90
38 -135 147 -321 256 -437 35 -37 62 -69 60 -72 -3 -2 -34 -17 -69 -33 -175
-79 -541 -435 -628 -611 -36 -72 -37 -79 -37 -180 0 -94 3 -112 27 -163 15
-32 42 -78 62 -103 l35 -46 -37 -67 c-31 -56 -36 -75 -36 -132 -1 -54 5 -77
31 -130 61 -124 421 -506 742 -788 86 -75 177 -157 202 -182 l45 -45 13 -155
c7 -85 16 -158 20 -162 4 -5 113 34 242 86 711 283 1326 472 2295 704 196 48
311 84 455 143 155 65 193 115 169 226 -15 67 -29 100 -67 158 -34 51 -41 79
-23 90 6 3 67 15 138 26 363 55 615 168 825 368 166 158 254 331 310 606 19
95 22 141 22 340 -1 389 -51 586 -194 765 -28 35 -52 70 -52 79 -1 9 -2 115
-3 236 -2 233 -11 302 -66 465 -68 206 -245 485 -484 765 -42 50 -79 100 -82
113 -4 13 1 49 10 81 23 83 21 177 -7 253 -30 84 -151 286 -221 370 -100 120
-262 238 -399 291 -38 14 -69 34 -85 55 -105 130 -166 178 -261 206 -81 24
-159 20 -238 -10 -45 -17 -80 -24 -103 -21 -19 3 -89 38 -155 78 -211 127
-415 216 -600 259 -153 36 -383 49 -533 29z m421 -130 c56 -11 147 -38 202
-60 126 -49 503 -235 655 -323 78 -45 147 -77 215 -97 343 -105 435 -142 563
-227 132 -87 274 -252 356 -412 67 -133 72 -148 51 -164 -17 -12 -17 -14 3
-28 18 -12 20 -17 9 -32 -11 -15 -19 -11 -80 40 -37 31 -96 92 -132 136 -65
81 -152 158 -223 198 -28 16 -38 27 -35 40 6 22 -13 35 -31 21 -9 -7 -32 -2
-85 19 -149 61 -295 87 -533 97 -126 5 -165 9 -161 19 8 21 -17 27 -38 8 -19
-17 -24 -16 -157 50 -86 42 -140 74 -144 86 -8 22 -19 25 -35 9 -13 -13 -107
12 -109 30 -1 6 -2 16 -3 21 -2 18 -31 11 -31 -8 0 -15 -8 -17 -68 -12 -38 3
-77 11 -86 19 -14 12 -21 13 -38 2 -13 -8 -34 -10 -59 -6 -31 5 -39 4 -39 -8
0 -20 -52 -37 -112 -37 -50 0 -148 19 -229 45 -26 8 -53 15 -61 15 -8 0 -35
11 -59 23 -32 18 -49 21 -60 14 -23 -14 -87 1 -112 26 -12 12 -31 27 -42 32
-11 6 -31 31 -45 55 -34 61 -35 165 -3 226 45 84 135 146 259 178 84 21 103
23 257 25 106 1 163 -4 240 -20z m1229 -313 c97 -58 111 -86 43 -86 -53 0
-165 38 -165 57 0 11 -6 14 -22 10 -11 -3 -35 1 -52 10 l-31 16 30 14 c47 21
145 11 197 -21z m-1832 -311 c58 -15 110 -30 115 -34 6 -4 53 -25 105 -45 52
-21 99 -41 103 -45 4 -5 -16 -33 -45 -64 -64 -67 -106 -81 -224 -75 -76 4 -89
8 -252 86 -249 118 -273 125 -406 119 -109 -5 -109 -5 -85 14 72 56 215 80
444 74 110 -3 162 -9 245 -30z m1045 -168 c44 -15 96 -37 115 -49 l35 -23
-146 -6 c-223 -11 -325 -26 -394 -58 -69 -32 -288 -231 -407 -368 -39 -46 -75
-83 -80 -83 -18 0 148 270 250 405 141 187 199 217 412 211 113 -2 148 -7 215
-29z m-945 -302 c0 -9 -9 -33 -19 -54 -20 -38 -20 -38 -96 -45 -94 -9 -231
-44 -360 -92 -53 -20 -99 -34 -101 -31 -7 7 109 89 186 130 146 79 390 136
390 92z m918 -81 c100 -29 176 -66 260 -128 67 -49 76 -72 46 -114 l-15 -22
-52 45 c-29 25 -85 62 -125 82 -125 62 -278 57 -372 -12 -54 -40 -129 -135
-167 -213 -33 -65 -37 -82 -37 -150 1 -84 18 -135 74 -217 17 -25 28 -50 25
-55 -12 -19 -56 -10 -126 26 -39 19 -105 44 -147 55 -42 11 -81 24 -87 30 -22
22 124 257 269 433 89 106 241 260 266 269 24 8 98 -4 188 -29z m1052 -204
c45 -16 121 -50 169 -76 95 -52 254 -154 248 -160 -2 -2 -39 4 -83 13 -55 11
-130 16 -244 16 -147 0 -176 -3 -264 -26 -54 -15 -128 -43 -163 -62 -83 -46
-110 -44 -140 10 -16 28 -23 57 -23 97 0 49 5 62 33 99 37 48 108 91 187 114
78 21 178 13 280 -25z m-1019 4 c14 -7 42 -31 62 -53 36 -40 97 -149 97 -173
0 -12 -93 -78 -114 -82 -5 0 -15 16 -22 37 -29 84 -81 127 -153 127 -73 0
-140 -85 -141 -177 0 -38 5 -46 55 -90 l55 -49 -45 -22 c-58 -28 -96 -28 -123
1 -31 33 -72 127 -72 167 0 76 84 197 191 276 86 63 141 73 210 38z m-1401
-320 c0 -113 15 -168 47 -177 10 -3 86 -18 168 -32 312 -56 457 -103 645 -210
59 -33 118 -34 157 -1 43 36 247 131 353 164 107 34 243 62 301 62 71 0 137
-37 166 -93 13 -26 12 -34 -11 -93 -26 -64 -34 -114 -18 -114 5 0 40 27 78 61
211 184 478 257 714 195 169 -45 248 -93 301 -186 54 -92 74 -162 74 -252 -1
-67 -5 -84 -35 -144 -42 -82 -92 -123 -179 -149 -34 -11 -61 -22 -61 -26 0
-11 69 -29 113 -29 27 0 37 -4 37 -16 0 -45 -62 -113 -147 -161 -35 -19 -63
-41 -63 -48 0 -16 13 -30 75 -81 80 -65 121 -166 102 -249 -11 -49 -2 -121 18
-152 24 -36 93 -66 175 -75 41 -5 96 -11 122 -14 26 -3 53 -13 60 -21 31 -38
-282 -277 -562 -430 -259 -141 -470 -235 -762 -338 l-107 -37 -33 20 c-187
118 -268 147 -418 146 -67 0 -128 -7 -170 -18 -116 -31 -354 -155 -580 -301
-114 -74 -144 -85 -224 -85 -88 1 -129 24 -262 149 -154 146 -194 166 -329
166 -116 0 -139 10 -222 98 -64 67 -83 104 -83 162 0 54 7 55 96 25 102 -36
191 -50 307 -49 113 1 207 16 210 34 1 5 -18 13 -43 18 -371 69 -736 325 -871
610 -42 90 -39 108 24 158 70 56 154 94 257 116 75 16 139 18 537 18 248 0
450 2 448 4 -7 7 -343 61 -470 76 -402 46 -641 24 -851 -80 -101 -51 -127 -54
-166 -22 -33 27 -48 65 -48 123 0 87 38 126 171 175 152 55 230 64 584 63 332
0 516 -13 805 -55 791 -115 854 -122 1160 -123 274 0 416 19 607 83 212 71
442 236 493 354 52 119 33 264 -44 341 -80 80 -235 98 -352 41 -53 -26 -163
-127 -146 -133 6 -2 43 7 82 19 39 12 96 22 126 23 45 1 57 -3 80 -25 l26 -26
-20 -44 c-87 -195 -301 -317 -611 -348 -266 -28 -746 -4 -1026 49 -288 55
-461 74 -796 89 -304 14 -560 -7 -882 -70 -73 -14 -112 -18 -119 -11 -15 15
16 124 63 221 49 99 156 218 258 285 141 93 359 187 441 190 l45 1 5 115 c4
96 7 111 16 90 6 -14 15 -40 19 -58 3 -18 15 -36 24 -42 39 -20 81 43 96 143
12 78 25 42 25 -69z m-584 42 c10 -8 17 -16 14 -19 -12 -10 -93 -37 -97 -33
-8 8 37 66 51 66 7 0 21 -6 32 -14z m70 -74 c17 -11 36 -51 29 -62 -3 -6 -21
-10 -38 -10 -55 0 -77 -23 -77 -81 0 -52 -10 -61 -44 -36 -11 8 -19 32 -23 67
-4 45 -2 59 15 80 29 36 110 61 138 42z m4283 -1828 c21 -71 19 -435 -2 -570
-48 -302 -179 -518 -407 -670 -158 -104 -390 -192 -477 -179 -34 5 -43 3 -43
-8 0 -17 -44 -25 -189 -36 -92 -7 -111 0 -111 45 0 35 -27 84 -48 86 -63 5
-98 -17 -127 -82 -9 -21 -26 -40 -36 -43 -24 -6 -25 -27 -1 -34 11 -3 23 -20
29 -46 7 -24 42 -87 78 -142 88 -131 95 -146 95 -199 0 -87 -68 -131 -253
-164 -93 -17 -107 -17 -120 -4 -18 17 -39 8 -30 -13 3 -9 -1 -15 -9 -15 -12 0
-164 -40 -329 -87 -10 -3 -18 3 -22 17 -3 13 -10 19 -17 15 -6 -4 -8 -15 -5
-25 5 -17 -10 -24 -121 -60 -116 -37 -128 -39 -139 -24 -14 20 -37 10 -33 -13
2 -10 -10 -20 -32 -28 -76 -27 -80 -27 -80 -11 0 9 -7 16 -15 16 -8 0 -15 -9
-15 -19 0 -15 -25 -28 -122 -64 -68 -24 -150 -52 -183 -61 -33 -10 -68 -19
-77 -22 -12 -4 -18 0 -18 10 0 10 -9 16 -21 16 -17 0 -20 -4 -15 -24 5 -22 0
-26 -67 -50 -39 -14 -173 -61 -297 -105 -124 -44 -322 -116 -440 -161 -118
-45 -232 -86 -252 -90 l-38 -7 32 59 c53 99 193 215 368 303 130 66 254 115
261 103 9 -15 40 -2 34 14 -6 15 138 75 168 70 10 -2 24 3 30 12 15 19 241
107 245 95 7 -17 32 -9 32 9 0 13 15 23 52 35 48 15 52 15 65 -1 12 -16 14
-16 27 1 17 21 44 22 67 1 19 -17 39 -11 39 12 0 11 15 14 64 14 35 0 99 7
142 15 56 11 81 12 91 4 15 -13 43 -5 43 13 0 18 141 89 155 78 18 -15 38 5
30 30 -6 19 -4 21 15 15 26 -8 45 12 28 32 -7 9 -6 24 6 54 9 22 19 68 23 101
4 41 13 68 27 83 32 35 195 135 201 125 4 -6 13 -10 22 -10 11 0 14 6 9 26 -5
20 -3 25 11 24 34 -4 42 0 45 23 2 15 9 21 21 19 11 -2 21 6 27 23 5 14 17 25
25 25 9 0 18 6 21 14 3 8 63 59 132 112 495 381 756 586 811 639 71 66 425
504 523 645 34 50 67 89 73 87 5 -2 16 -26 24 -53z m-558 -312 c-38 -48 -103
-120 -144 -159 -89 -84 -1222 -934 -1254 -941 -18 -3 -23 3 -33 39 -17 61 -6
131 30 193 48 85 57 184 25 267 -5 13 11 20 87 38 506 124 939 325 1248 579
47 39 91 71 98 71 7 1 -19 -39 -57 -87z m-3777 -447 l51 -54 -70 -68 c-67 -66
-135 -174 -135 -217 0 -9 -6 -16 -13 -16 -18 0 -59 174 -65 270 -5 89 15 189
53 275 l26 60 51 -98 c30 -58 71 -119 102 -152z m-380 43 c-14 -155 30 -395
107 -578 25 -60 38 -103 34 -118 -4 -17 0 -24 20 -32 28 -11 37 -60 10 -60
-17 0 -19 -13 -6 -38 6 -9 20 -51 33 -92 25 -82 53 -110 129 -130 46 -13 85
-56 68 -77 -14 -16 -5 -28 19 -28 12 0 16 -7 14 -22 -2 -14 4 -26 17 -32 29
-16 92 -139 85 -168 -5 -18 -2 -23 14 -23 15 0 34 -25 77 -101 31 -56 54 -108
51 -116 -3 -7 1 -16 10 -20 8 -3 36 -36 60 -74 51 -77 51 -99 3 -125 -16 -8
-35 -26 -41 -39 -19 -43 -43 -40 -116 11 -175 124 -317 250 -324 289 -2 14
-10 19 -24 17 -15 -2 -61 39 -170 150 -274 280 -389 451 -370 551 10 52 182
272 213 272 9 0 18 6 20 13 3 6 -1 12 -7 12 -8 0 -10 14 -6 48 5 37 2 54 -14
80 -11 18 -28 32 -39 32 -19 0 -71 -59 -71 -81 0 -24 -51 -79 -74 -79 -28 0
-82 55 -78 80 2 13 -4 20 -19 22 -28 4 -53 68 -45 116 7 43 72 128 157 203 56
51 258 208 267 209 2 0 0 -33 -4 -72z m2402 -78 c32 -11 89 -42 125 -69 83
-61 114 -117 107 -194 -6 -72 -45 -157 -70 -157 -17 0 -20 -5 -15 -28 6 -31
-6 -62 -17 -43 -10 16 -36 13 -36 -4 0 -8 7 -15 15 -15 22 0 19 -8 -21 -74
-38 -60 -56 -138 -36 -150 6 -4 27 0 47 8 27 12 41 27 59 67 l24 51 8 -68 c12
-106 7 -214 -11 -269 -20 -57 -51 -105 -68 -105 -7 0 -17 -10 -22 -22 -6 -13
-39 -38 -78 -57 -91 -47 -203 -54 -322 -21 -114 31 -151 50 -147 78 4 24 -16
30 -35 11 -9 -9 -20 -6 -45 11 -47 33 -238 222 -238 237 0 7 9 17 21 23 16 9
19 17 14 42 -7 28 -5 30 16 25 13 -3 50 -11 82 -18 44 -9 57 -16 57 -31 0 -22
35 -25 44 -3 3 9 18 15 36 15 l31 0 -33 41 c-18 22 -65 66 -106 97 l-74 56 64
22 c105 35 205 95 193 115 -9 14 -142 10 -220 -6 -38 -8 -71 -15 -73 -15 -1 0
-11 20 -21 43 -11 24 -36 58 -57 75 -23 19 -34 35 -29 40 17 15 248 157 315
194 201 110 380 144 516 98z m-1621 -90 c15 -6 66 -48 113 -93 48 -46 106 -94
130 -107 23 -13 42 -26 42 -29 0 -12 -103 -126 -126 -141 -20 -12 -30 -12 -66
-2 -94 29 -92 29 -84 -8 8 -40 27 -64 66 -80 38 -16 28 -37 -35 -76 -50 -32
-53 -39 -26 -54 27 -14 66 -13 107 5 42 17 60 11 79 -25 l14 -28 -67 -40
c-113 -68 -170 -83 -321 -83 -88 0 -111 4 -150 23 -76 39 -85 60 -89 205 -5
158 10 267 44 334 76 151 250 244 369 199z m656 -255 c60 -21 119 -62 119 -82
0 -9 -18 -32 -41 -51 -47 -40 -48 -60 -10 -147 30 -67 19 -98 -46 -128 -40
-18 -67 -22 -158 -22 -95 0 -116 3 -152 22 -86 47 -135 143 -113 225 24 86 92
155 182 183 59 19 166 18 219 0z"/>
<path d="M4140 6950 c0 -5 7 -10 15 -10 8 0 15 5 15 10 0 6 -7 10 -15 10 -8 0
-15 -4 -15 -10z"/>
<path d="M4006 6913 c-11 -11 -6 -23 9 -23 8 0 15 4 15 9 0 13 -16 22 -24 14z"/>
<path d="M4097 6914 c-8 -8 1 -24 14 -24 5 0 9 7 9 15 0 15 -12 20 -23 9z"/>
<path d="M4197 6913 c-12 -11 -8 -23 8 -23 8 0 15 7 15 15 0 16 -12 20 -23 8z"/>
<path d="M3810 6900 c0 -5 5 -10 10 -10 6 0 10 5 10 10 0 6 -4 10 -10 10 -5 0
-10 -4 -10 -10z"/>
<path d="M3910 6900 c0 -5 5 -10 10 -10 6 0 10 5 10 10 0 6 -4 10 -10 10 -5 0
-10 -4 -10 -10z"/>
<path d="M3670 6855 c0 -8 5 -15 10 -15 6 0 10 7 10 15 0 8 -4 15 -10 15 -5 0
-10 -7 -10 -15z"/>
<path d="M3860 6855 c0 -9 5 -15 11 -13 6 2 11 8 11 13 0 5 -5 11 -11 13 -6 2
-11 -4 -11 -13z"/>
<path d="M3957 6863 c-12 -11 -8 -23 8 -23 8 0 15 7 15 15 0 16 -12 20 -23 8z"/>
<path d="M4140 6855 c0 -8 7 -15 15 -15 8 0 15 7 15 15 0 8 -7 15 -15 15 -8 0
-15 -7 -15 -15z"/>
<path d="M3335 6810 c-3 -5 1 -10 10 -10 9 0 13 5 10 10 -3 6 -8 10 -10 10 -2
0 -7 -4 -10 -10z"/>
<path d="M3525 6810 c-3 -5 -4 -10 -1 -10 2 0 12 -3 20 -6 12 -5 15 -2 10 10
-7 18 -20 21 -29 6z"/>
<path d="M3805 6809 c-10 -15 1 -23 20 -15 9 3 13 10 10 16 -8 13 -22 13 -30
-1z"/>
<path d="M4006 6811 c-4 -5 -2 -12 3 -15 5 -4 12 -2 15 3 4 5 2 12 -3 15 -5 4
-12 2 -15 -3z"/>
<path d="M3475 6770 c-8 -13 3 -30 20 -30 8 0 11 7 8 20 -6 22 -18 26 -28 10z"/>
<path d="M3666 6773 c-12 -12 -5 -23 14 -23 11 0 20 4 20 9 0 11 -26 22 -34
14z"/>
<path d="M3766 6773 c-11 -11 -6 -23 9 -23 8 0 15 4 15 9 0 13 -16 22 -24 14z"/>
<path d="M3860 6759 c0 -24 23 -21 28 4 2 10 -3 17 -12 17 -10 0 -16 -9 -16
-21z"/>
<path d="M3955 6770 c-7 -12 2 -30 16 -30 5 0 9 9 9 20 0 21 -15 27 -25 10z"/>
<path d="M4056 6773 c-11 -11 -6 -23 9 -23 8 0 15 4 15 9 0 13 -16 22 -24 14z"/>
<path d="M4145 6770 c-7 -12 2 -30 16 -30 12 0 12 27 0 35 -5 3 -12 1 -16 -5z"/>
<path d="M4240 6766 c0 -21 21 -31 30 -15 5 7 6 17 4 21 -9 14 -34 9 -34 -6z"/>
<path d="M4344 6766 c-8 -22 3 -33 18 -18 9 9 9 15 0 24 -9 9 -13 7 -18 -6z"/>
<path d="M3570 6760 c0 -5 4 -10 9 -10 6 0 13 5 16 10 3 6 -1 10 -9 10 -9 0
-16 -4 -16 -10z"/>
<path d="M3804 6715 c-4 -9 -3 -19 0 -23 9 -8 42 12 39 24 -4 16 -33 16 -39
-1z"/>
<path d="M4296 6723 c-11 -11 -6 -23 9 -23 8 0 15 4 15 9 0 13 -16 22 -24 14z"/>
<path d="M4384 6719 c-10 -17 13 -36 27 -22 12 12 4 33 -11 33 -5 0 -12 -5
-16 -11z"/>
<path d="M4482 6714 c4 -21 22 -23 26 -1 2 10 -3 17 -13 17 -10 0 -15 -6 -13
-16z"/>
<path d="M4530 6665 c0 -8 7 -15 15 -15 8 0 15 7 15 15 0 8 -7 15 -15 15 -8 0
-15 -7 -15 -15z"/>
<path d="M4820 6665 c0 -9 5 -15 11 -13 6 2 11 8 11 13 0 5 -5 11 -11 13 -6 2
-11 -4 -11 -13z"/>
<path d="M5015 6669 c-10 -15 3 -25 16 -12 7 7 7 13 1 17 -6 3 -14 1 -17 -5z"/>
<path d="M5296 6672 c-3 -6 -1 -14 5 -17 15 -10 25 3 12 16 -7 7 -13 7 -17 1z"/>
<path d="M4580 6621 c0 -11 4 -21 9 -21 18 0 21 18 6 30 -13 10 -15 9 -15 -9z"/>
<path d="M5156 6633 c-12 -12 -6 -33 9 -33 8 0 15 6 15 14 0 17 -14 28 -24 19z"/>
<path d="M4480 6615 c0 -8 7 -15 15 -15 8 0 15 7 15 15 0 8 -7 15 -15 15 -8 0
-15 -7 -15 -15z"/>
<path d="M4670 6615 c0 -10 7 -15 18 -13 21 4 19 22 -2 26 -10 2 -16 -3 -16
-13z"/>
<path d="M4772 6621 c4 -13 18 -16 19 -4 0 4 -5 9 -11 12 -7 2 -11 -2 -8 -8z"/>
<path d="M4860 6615 c0 -10 7 -15 18 -13 21 4 19 22 -2 26 -10 2 -16 -3 -16
-13z"/>
<path d="M4960 6615 c0 -8 7 -15 15 -15 8 0 15 7 15 15 0 8 -7 15 -15 15 -8 0
-15 -7 -15 -15z"/>
<path d="M5060 6615 c0 -8 5 -15 10 -15 6 0 10 7 10 15 0 8 -4 15 -10 15 -5 0
-10 -7 -10 -15z"/>
<path d="M5345 6620 c-8 -13 4 -32 16 -25 12 8 12 35 0 35 -6 0 -13 -4 -16
-10z"/>
<path d="M5440 6610 c0 -5 4 -10 9 -10 6 0 13 5 16 10 3 6 -1 10 -9 10 -9 0
-16 -4 -16 -10z"/>
<path d="M4724 6586 c-4 -10 -2 -22 4 -28 8 -8 13 -7 18 6 4 10 2 22 -4 28 -8
8 -13 7 -18 -6z"/>
<path d="M4627 6584 c-14 -15 -6 -34 14 -34 14 0 19 5 17 17 -3 18 -20 27 -31
17z"/>
<path d="M4814 6579 c-10 -17 13 -36 27 -22 12 12 4 33 -11 33 -5 0 -12 -5
-16 -11z"/>
<path d="M5011 6576 c-9 -10 -9 -16 -1 -21 17 -10 37 12 24 25 -8 8 -15 6 -23
-4z"/>
<path d="M5105 6580 c-7 -12 2 -30 16 -30 12 0 12 27 0 35 -5 3 -12 1 -16 -5z"/>
<path d="M5204 6576 c-4 -9 -4 -20 0 -23 3 -4 12 -1 18 5 9 9 9 15 0 24 -9 9
-13 7 -18 -6z"/>
<path d="M5495 6580 c-4 -6 -3 -16 3 -22 6 -6 12 -6 17 2 4 6 3 16 -3 22 -6 6
-12 6 -17 -2z"/>
<path d="M4912 6568 c6 -18 28 -21 28 -4 0 9 -7 16 -16 16 -9 0 -14 -5 -12
-12z"/>
<path d="M5297 6574 c-8 -8 1 -24 14 -24 5 0 9 7 9 15 0 15 -12 20 -23 9z"/>
<path d="M5396 6571 c-4 -5 -2 -12 3 -15 5 -4 12 -2 15 3 4 5 2 12 -3 15 -5 4
-12 2 -15 -3z"/>
<path d="M4867 6525 c-5 -10 0 -15 14 -15 12 0 19 5 17 12 -6 18 -25 20 -31 3z"/>
<path d="M4966 6533 c-11 -11 -6 -23 9 -23 8 0 15 4 15 9 0 13 -16 22 -24 14z"/>
<path d="M5156 6533 c-11 -11 -6 -23 9 -23 8 0 15 4 15 9 0 13 -16 22 -24 14z"/>
<path d="M5350 6520 c0 -5 5 -10 10 -10 6 0 10 5 10 10 0 6 -4 10 -10 10 -5 0
-10 -4 -10 -10z"/>
<path d="M5297 6483 c-12 -11 -8 -23 8 -23 8 0 15 7 15 15 0 16 -12 20 -23 8z"/>
<path d="M5496 6481 c-4 -7 -5 -15 -2 -18 9 -9 19 4 14 18 -4 11 -6 11 -12 0z"/>
<path d="M5440 6426 c0 -9 7 -16 16 -16 9 0 14 5 12 12 -6 18 -28 21 -28 4z"/>
<path d="M5546 6431 c-4 -7 -5 -15 -2 -18 9 -9 19 4 14 18 -4 11 -6 11 -12 0z"/>
<path d="M5630 6426 c0 -9 7 -16 16 -16 9 0 14 5 12 12 -6 18 -28 21 -28 4z"/>
<path d="M5590 6375 c0 -8 5 -15 10 -15 6 0 10 7 10 15 0 8 -4 15 -10 15 -5 0
-10 -7 -10 -15z"/>
<path d="M5680 6376 c0 -9 7 -16 16 -16 9 0 14 5 12 12 -6 18 -28 21 -28 4z"/>
<path d="M5632 6329 c2 -6 8 -10 13 -10 5 0 11 4 13 10 2 6 -4 11 -13 11 -9 0
-15 -5 -13 -11z"/>
<path d="M5682 6279 c2 -6 8 -10 13 -10 5 0 11 4 13 10 2 6 -4 11 -13 11 -9 0
-15 -5 -13 -11z"/>
<path d="M5780 6280 c0 -5 7 -10 16 -10 8 0 12 5 9 10 -3 6 -10 10 -16 10 -5
0 -9 -4 -9 -10z"/>
<path d="M5730 6235 c0 -9 5 -15 11 -13 6 2 11 8 11 13 0 5 -5 11 -11 13 -6 2
-11 -4 -11 -13z"/>
<path d="M5825 6230 c3 -5 10 -10 16 -10 5 0 9 5 9 10 0 6 -7 10 -16 10 -8 0
-12 -4 -9 -10z"/>
<path d="M5820 6135 c0 -10 7 -15 18 -13 21 4 19 22 -2 26 -10 2 -16 -3 -16
-13z"/>
<path d="M5876 6103 c-12 -12 -6 -33 9 -33 8 0 15 6 15 14 0 17 -14 28 -24 19z"/>
<path d="M2725 5106 c-16 -12 -17 -17 -6 -44 13 -31 51 -52 95 -52 12 0 52
-14 89 -30 66 -28 68 -28 61 -7 -16 55 -55 106 -97 126 -50 24 -114 27 -142 7z"/>
<path d="M2223 4994 c-47 -29 -50 -35 -27 -58 20 -20 43 -20 72 0 19 13 52 63
52 79 0 14 -60 1 -97 -21z"/>
<path d="M6646 3133 c-12 -12 -5 -23 14 -23 11 0 20 4 20 9 0 11 -26 22 -34
14z"/>
<path d="M6685 3081 c-7 -12 12 -24 25 -16 11 7 4 25 -10 25 -5 0 -11 -4 -15
-9z"/>
<path d="M6637 3034 c-9 -10 2 -24 19 -24 8 0 14 7 14 15 0 15 -21 21 -33 9z"/>
<path d="M6545 2940 c-8 -13 4 -32 16 -25 12 8 12 35 0 35 -6 0 -13 -4 -16
-10z"/>
<path d="M6634 2939 c-10 -17 13 -36 27 -22 12 12 4 33 -11 33 -5 0 -12 -5
-16 -11z"/>
<path d="M6492 2883 c2 -10 10 -18 18 -18 22 0 18 29 -3 33 -14 3 -18 -1 -15
-15z"/>
<path d="M6597 2893 c-12 -11 -8 -23 8 -23 8 0 15 7 15 15 0 16 -12 20 -23 8z"/>
<path d="M6445 2841 c-7 -12 12 -24 25 -16 11 7 4 25 -10 25 -5 0 -11 -4 -15
-9z"/>
<path d="M6494 2799 c-10 -17 13 -36 27 -22 12 12 4 33 -11 33 -5 0 -12 -5
-16 -11z"/>
<path d="M6305 2789 c-10 -15 1 -23 20 -15 9 3 13 10 10 16 -8 13 -22 13 -30
-1z"/>
<path d="M6264 2746 c-8 -22 3 -33 18 -18 9 9 9 15 0 24 -9 9 -13 7 -18 -6z"/>
<path d="M6357 2753 c-13 -12 -7 -33 8 -33 8 0 15 9 15 20 0 20 -11 26 -23 13z"/>
<path d="M6445 2751 c-8 -15 3 -31 21 -31 9 0 14 7 12 17 -4 20 -24 28 -33 14z"/>
<path d="M6545 2750 c-4 -6 -3 -16 3 -22 6 -6 12 -6 17 2 4 6 3 16 -3 22 -6 6
-12 6 -17 -2z"/>
<path d="M6117 2703 c-12 -11 -8 -23 8 -23 8 0 15 7 15 15 0 16 -12 20 -23 8z"/>
<path d="M6305 2699 c-10 -15 1 -23 20 -15 9 3 13 10 10 16 -8 13 -22 13 -30
-1z"/>
<path d="M6495 2700 c-3 -6 1 -13 10 -16 19 -8 30 0 20 15 -8 14 -22 14 -30 1z"/>
<path d="M6160 2645 c0 -9 5 -15 11 -13 6 2 11 8 11 13 0 5 -5 11 -11 13 -6 2
-11 -4 -11 -13z"/>
<path d="M6447 2654 c-13 -13 -7 -24 14 -24 11 0 19 5 17 12 -5 14 -22 21 -31
12z"/>
<path d="M6117 2613 c-4 -3 -7 -12 -7 -20 0 -15 26 -18 34 -4 7 11 -18 33 -27
24z"/>
<path d="M6010 2595 c0 -8 9 -15 20 -15 11 0 20 7 20 15 0 8 -9 15 -20 15 -11
0 -20 -7 -20 -15z"/>
<path d="M6210 2595 c0 -9 5 -15 11 -13 6 2 11 8 11 13 0 5 -5 11 -11 13 -6 2
-11 -4 -11 -13z"/>
<path d="M6300 2595 c0 -10 7 -15 18 -13 21 4 19 22 -2 26 -10 2 -16 -3 -16
-13z"/>
<path d="M6400 2595 c0 -9 5 -15 11 -13 6 2 11 8 11 13 0 5 -5 11 -11 13 -6 2
-11 -4 -11 -13z"/>
<path d="M5965 2561 c-8 -15 3 -31 21 -31 9 0 14 7 12 17 -4 20 -24 28 -33 14z"/>
<path d="M6155 2561 c-8 -15 3 -31 21 -31 9 0 14 7 12 17 -4 20 -24 28 -33 14z"/>
<path d="M5780 2545 c0 -9 6 -12 15 -9 8 4 15 10 15 15 0 5 -7 9 -15 9 -8 0
-15 -7 -15 -15z"/>
<path d="M5635 2510 c-4 -6 -3 -16 3 -22 6 -6 12 -6 17 2 4 6 3 16 -3 22 -6 6
-12 6 -17 -2z"/>
<path d="M5826 2513 c-12 -12 -5 -23 14 -23 11 0 20 4 20 9 0 11 -26 22 -34
14z"/>
<path d="M6014 2509 c-10 -17 13 -36 27 -22 12 12 4 33 -11 33 -5 0 -12 -5
-16 -11z"/>
<path d="M6307 2513 c-12 -11 -8 -23 8 -23 8 0 15 7 15 15 0 16 -12 20 -23 8z"/>
<path d="M5496 2463 c-11 -11 -6 -23 9 -23 8 0 15 4 15 9 0 13 -16 22 -24 14z"/>
<path d="M5774 2459 c-8 -14 11 -33 25 -25 6 4 11 11 11 16 0 13 -29 20 -36 9z"/>
<path d="M5680 2452 c0 -14 11 -21 26 -15 21 8 17 23 -6 23 -11 0 -20 -4 -20
-8z"/>
<path d="M5970 2450 c0 -5 7 -10 15 -10 8 0 15 5 15 10 0 6 -7 10 -15 10 -8 0
-15 -4 -15 -10z"/>
<path d="M6160 2444 c0 -17 22 -14 28 4 2 7 -3 12 -12 12 -9 0 -16 -7 -16 -16z"/>
<path d="M5340 2406 c0 -21 21 -31 30 -15 5 7 6 17 4 21 -9 14 -34 9 -34 -6z"/>
<path d="M5537 2414 c-9 -10 2 -24 18 -24 9 0 12 6 9 15 -6 16 -17 19 -27 9z"/>
<path d="M5632 2404 c4 -21 22 -23 26 -1 2 10 -3 17 -13 17 -10 0 -15 -6 -13
-16z"/>
<path d="M5730 2405 c0 -9 5 -15 11 -13 6 2 11 8 11 13 0 5 -5 11 -11 13 -6 2
-11 -4 -11 -13z"/>
<path d="M5824 2409 c-3 -6 -2 -15 2 -19 12 -12 38 5 30 19 -9 14 -23 14 -32
0z"/>
<path d="M5925 2410 c-4 -6 -3 -16 3 -22 6 -6 12 -6 17 2 4 6 3 16 -3 22 -6 6
-12 6 -17 -2z"/>
<path d="M6012 2403 c2 -10 10 -18 18 -18 22 0 18 29 -3 33 -14 3 -18 -1 -15
-15z"/>
<path d="M5290 2355 c0 -8 9 -15 20 -15 11 0 20 7 20 15 0 8 -9 15 -20 15 -11
0 -20 -7 -20 -15z"/>
<path d="M5677 2364 c-9 -10 2 -24 19 -24 8 0 14 7 14 15 0 15 -21 21 -33 9z"/>
<path d="M5770 2356 c0 -10 9 -16 21 -16 24 0 21 23 -4 28 -10 2 -17 -3 -17
-12z"/>
<path d="M5870 2355 c0 -8 7 -15 15 -15 8 0 15 7 15 15 0 8 -7 15 -15 15 -8 0
-15 -7 -15 -15z"/>
<path d="M5965 2361 c-3 -5 -1 -12 5 -16 12 -7 30 2 30 16 0 12 -27 12 -35 0z"/>
<path d="M5630 2312 c0 -14 11 -21 26 -15 8 3 11 9 8 14 -7 11 -34 12 -34 1z"/>
<path d="M5200 2261 c0 -12 6 -21 16 -21 9 0 14 7 12 17 -5 25 -28 28 -28 4z"/>
<path d="M5150 2216 c0 -21 21 -31 30 -15 5 7 6 17 4 21 -9 14 -34 9 -34 -6z"/>
<path d="M5254 2216 c-8 -22 3 -33 18 -18 9 9 9 15 0 24 -9 9 -13 7 -18 -6z"/>
<path d="M5295 2170 c-3 -6 1 -13 10 -16 19 -8 30 0 20 15 -8 14 -22 14 -30 1z"/>
<path d="M4960 2120 c0 -11 7 -20 15 -20 8 0 15 6 15 14 0 8 -7 16 -15 20 -10
4 -15 -1 -15 -14z"/>
<path d="M5150 2115 c0 -8 7 -15 15 -15 8 0 15 7 15 15 0 8 -7 15 -15 15 -8 0
-15 -7 -15 -15z"/>
<path d="M5004 2079 c-10 -17 13 -36 27 -22 12 12 4 33 -11 33 -5 0 -12 -5
-16 -11z"/>
<path d="M5107 2076 c-6 -16 2 -28 14 -20 12 7 11 34 0 34 -5 0 -11 -6 -14
-14z"/>
<path d="M5206 2083 c-12 -12 -6 -33 9 -33 8 0 15 6 15 14 0 17 -14 28 -24 19z"/>
<path d="M5294 2079 c-10 -17 13 -36 27 -22 12 12 4 33 -11 33 -5 0 -12 -5
-16 -11z"/>
<path d="M4910 2072 c0 -14 11 -21 26 -15 8 3 11 9 8 14 -7 11 -34 12 -34 1z"/>
<path d="M4864 2028 c-4 -5 -1 -14 7 -18 14 -9 29 -4 29 10 0 13 -29 20 -36 8z"/>
<path d="M4965 2030 c-4 -6 -3 -16 3 -22 6 -6 12 -6 17 2 4 6 3 16 -3 22 -6 6
-12 6 -17 -2z"/>
<path d="M5156 2033 c-11 -11 -6 -23 8 -23 8 0 17 4 20 9 7 10 -19 23 -28 14z"/>
<path d="M5344 2029 c-3 -6 -2 -15 2 -19 12 -12 38 5 30 19 -9 14 -23 14 -32
0z"/>
<path d="M4812 1973 c2 -10 10 -18 18 -18 8 0 16 8 18 18 2 12 -3 17 -18 17
-15 0 -20 -5 -18 -17z"/>
<path d="M5004 1979 c-8 -14 11 -33 25 -25 6 4 11 14 11 22 0 16 -26 19 -36 3z"/>
<path d="M5297 1984 c-13 -13 -7 -24 14 -24 11 0 19 5 17 12 -5 14 -22 21 -31
12z"/>
<path d="M5057 1936 c-6 -15 1 -26 15 -26 11 0 10 27 -1 34 -5 3 -11 0 -14 -8z"/>
<path d="M5440 1930 c0 -11 7 -20 15 -20 8 0 15 6 15 14 0 8 -7 16 -15 20 -10
4 -15 -1 -15 -14z"/>
<path d="M4860 1925 c0 -8 9 -15 20 -15 11 0 20 7 20 15 0 8 -9 15 -20 15 -11
0 -20 -7 -20 -15z"/>
<path d="M4960 1925 c0 -8 7 -15 15 -15 8 0 15 7 15 15 0 8 -7 15 -15 15 -8 0
-15 -7 -15 -15z"/>
<path d="M5150 1925 c0 -10 7 -15 18 -13 21 4 19 22 -2 26 -10 2 -16 -3 -16
-13z"/>
<path d="M5250 1925 c0 -9 5 -15 11 -13 6 2 11 8 11 13 0 5 -5 11 -11 13 -6 2
-11 -4 -11 -13z"/>
<path d="M5340 1925 c0 -10 7 -15 18 -13 21 4 19 22 -2 26 -10 2 -16 -3 -16
-13z"/>
<path d="M4815 1891 c-8 -15 3 -31 21 -31 9 0 14 7 12 17 -4 20 -24 28 -33 14z"/>
<path d="M5011 1886 c-12 -14 -5 -26 16 -26 15 0 18 26 4 34 -5 3 -14 0 -20
-8z"/>
<path d="M5290 1875 c0 -8 9 -15 20 -15 11 0 20 7 20 15 0 8 -9 15 -20 15 -11
0 -20 -7 -20 -15z"/>
<path d="M4870 1840 c-12 -7 -12 -12 -2 -22 9 -9 15 -9 24 0 16 16 -2 34 -22
22z"/>
<path d="M5345 1840 c-10 -17 12 -37 25 -24 8 8 6 15 -4 23 -10 9 -16 9 -21 1z"/>
<path d="M4962 1829 c2 -6 8 -10 13 -10 5 0 11 4 13 10 2 6 -4 11 -13 11 -9 0
-15 -5 -13 -11z"/>
<path d="M5152 1829 c2 -6 8 -10 13 -10 5 0 11 4 13 10 2 6 -4 11 -13 11 -9 0
-15 -5 -13 -11z"/>
<path d="M5442 1829 c2 -6 8 -10 13 -10 5 0 11 4 13 10 2 6 -4 11 -13 11 -9 0
-15 -5 -13 -11z"/>
<path d="M5107 1795 c-7 -16 8 -29 23 -20 10 6 2 35 -10 35 -4 0 -10 -7 -13
-15z"/>
<path d="M4814 1789 c-10 -17 13 -36 27 -22 12 12 4 33 -11 33 -5 0 -12 -5
-16 -11z"/>
<path d="M4912 1784 c4 -21 22 -23 26 -1 2 10 -3 17 -13 17 -10 0 -15 -6 -13
-16z"/>
<path d="M5006 1791 c-7 -11 18 -33 27 -24 4 3 7 12 7 20 0 15 -26 18 -34 4z"/>
<path d="M5206 1793 c-11 -11 -6 -23 9 -23 8 0 15 4 15 9 0 13 -16 22 -24 14z"/>
<path d="M5294 1789 c-10 -17 13 -36 27 -22 12 12 4 33 -11 33 -5 0 -12 -5
-16 -11z"/>
<path d="M5392 1783 c2 -10 10 -18 18 -18 22 0 18 29 -3 33 -14 3 -18 -1 -15
-15z"/>
<path d="M4770 1736 c0 -9 7 -16 16 -16 17 0 14 22 -4 28 -7 2 -12 -3 -12 -12z"/>
<path d="M4864 1739 c-10 -17 13 -36 27 -22 12 12 4 33 -11 33 -5 0 -12 -5
-16 -11z"/>
<path d="M4957 1744 c-9 -10 4 -34 19 -34 8 0 14 9 14 20 0 19 -19 27 -33 14z"/>
<path d="M5055 1741 c-7 -12 12 -24 25 -16 11 7 4 25 -10 25 -5 0 -11 -4 -15
-9z"/>
<path d="M5150 1736 c0 -8 4 -17 9 -20 11 -7 33 18 24 27 -12 12 -33 7 -33 -7z"/>
<path d="M5252 1736 c1 -10 8 -17 13 -17 15 1 12 24 -3 29 -9 3 -13 -2 -10
-12z"/>
<path d="M5342 1738 c5 -15 28 -18 29 -3 0 6 -7 12 -17 13 -10 3 -15 -1 -12
-10z"/>
<path d="M4815 1691 c-7 -12 12 -24 25 -16 11 7 4 25 -10 25 -5 0 -11 -4 -15
-9z"/>
<path d="M5007 1694 c-9 -10 2 -24 19 -24 8 0 14 7 14 15 0 15 -21 21 -33 9z"/>
<path d="M4677 1654 c-14 -14 -7 -35 11 -32 9 2 17 10 17 17 0 16 -18 25 -28
15z"/>
<path d="M4864 1649 c-10 -17 13 -36 27 -22 12 12 4 33 -11 33 -5 0 -12 -5
-16 -11z"/>
<path d="M4580 1634 c0 -9 5 -14 12 -12 18 6 21 28 4 28 -9 0 -16 -7 -16 -16z"/>
<path d="M4772 1639 c2 -6 8 -10 13 -10 5 0 11 4 13 10 2 6 -4 11 -13 11 -9 0
-15 -5 -13 -11z"/>
<path d="M4334 1599 c-10 -17 13 -36 27 -22 12 12 4 33 -11 33 -5 0 -12 -5
-16 -11z"/>
<path d="M4530 1590 c0 -13 5 -20 13 -17 6 2 12 10 12 17 0 7 -6 15 -12 18 -8
2 -13 -5 -13 -18z"/>
<path d="M4624 1599 c-10 -17 13 -36 27 -22 12 12 4 33 -11 33 -5 0 -12 -5
-16 -11z"/>
<path d="M4000 1546 c0 -9 7 -16 16 -16 17 0 14 22 -4 28 -7 2 -12 -3 -12 -12z"/>
<path d="M4480 1545 c0 -8 7 -15 15 -15 8 0 15 7 15 15 0 8 -7 15 -15 15 -8 0
-15 -7 -15 -15z"/>
<path d="M3852 1498 c7 -19 38 -22 38 -4 0 10 -9 16 -21 16 -12 0 -19 -5 -17
-12z"/>
<path d="M3950 1495 c0 -10 7 -15 18 -13 21 4 19 22 -2 26 -10 2 -16 -3 -16
-13z"/>
<path d="M4050 1495 c0 -9 5 -15 11 -13 6 2 11 8 11 13 0 5 -5 11 -11 13 -6 2
-11 -4 -11 -13z"/>
<path d="M4140 1496 c0 -10 9 -16 21 -16 24 0 21 23 -4 28 -10 2 -17 -3 -17
-12z"/>
<path d="M4330 1495 c0 -8 9 -15 20 -15 11 0 20 7 20 15 0 8 -9 15 -20 15 -11
0 -20 -7 -20 -15z"/>
<path d="M3811 1456 c-12 -14 -5 -26 16 -26 15 0 18 26 4 34 -5 3 -14 0 -20
-8z"/>
<path d="M4001 1456 c-12 -14 -5 -26 16 -26 15 0 18 26 4 34 -5 3 -14 0 -20
-8z"/>
<path d="M4197 1463 c-4 -3 -7 -12 -7 -20 0 -15 26 -18 34 -4 7 11 -18 33 -27
24z"/>
<path d="M3712 1448 c6 -18 28 -21 28 -4 0 9 -7 16 -16 16 -9 0 -14 -5 -12
-12z"/>
<path d="M3907 1454 c-8 -8 1 -24 14 -24 5 0 9 7 9 15 0 15 -12 20 -23 9z"/>
<path d="M4100 1444 c0 -9 5 -14 12 -12 18 6 21 28 4 28 -9 0 -16 -7 -16 -16z"/>
<path d="M3665 1410 c-4 -6 -3 -16 3 -22 6 -6 12 -6 17 2 4 6 3 16 -3 22 -6 6
-12 6 -17 -2z"/>
<path d="M3860 1410 c-12 -7 -12 -10 3 -16 21 -8 29 -3 19 13 -5 8 -13 9 -22
3z"/>
<path d="M3955 1410 c-7 -12 2 -30 16 -30 12 0 12 27 0 35 -5 3 -12 1 -16 -5z"/>
<path d="M4140 1402 c0 -14 11 -21 26 -15 21 8 17 23 -6 23 -11 0 -20 -4 -20
-8z"/>
<path d="M3520 1350 c0 -11 7 -20 15 -20 8 0 15 9 15 20 0 11 -7 20 -15 20 -8
0 -15 -9 -15 -20z"/>
<path d="M3812 1356 c1 -10 8 -17 13 -17 15 1 12 24 -3 29 -9 3 -13 -2 -10
-12z"/>
<path d="M4006 1363 c-11 -11 -6 -23 9 -23 8 0 15 4 15 9 0 13 -16 22 -24 14z"/>
<path d="M3370 1306 c0 -17 27 -29 35 -16 4 6 3 15 0 20 -9 15 -35 12 -35 -4z"/>
<path d="M3470 1306 c0 -8 4 -17 9 -20 11 -7 33 18 24 27 -12 12 -33 7 -33 -7z"/>
<path d="M3570 1306 c0 -9 7 -16 16 -16 17 0 14 22 -4 28 -7 2 -12 -3 -12 -12z"/>
<path d="M3660 1305 c0 -10 7 -15 18 -13 21 4 19 22 -2 26 -10 2 -16 -3 -16
-13z"/>
<path d="M3767 1313 c-12 -11 -8 -23 8 -23 8 0 15 7 15 15 0 16 -12 20 -23 8z"/>
<path d="M3322 1258 c7 -19 38 -22 38 -4 0 10 -9 16 -21 16 -12 0 -19 -5 -17
-12z"/>
<path d="M3520 1255 c0 -10 7 -15 18 -13 21 4 19 22 -2 26 -10 2 -16 -3 -16
-13z"/>
<path d="M3475 1220 c-7 -12 2 -30 16 -30 12 0 12 27 0 35 -5 3 -12 1 -16 -5z"/>
<path d="M3185 1211 c-3 -5 -1 -12 5 -16 12 -7 30 2 30 16 0 12 -27 12 -35 0z"/>
<path d="M3134 1169 c-10 -17 13 -36 27 -22 12 12 4 33 -11 33 -5 0 -12 -5
-16 -11z"/>
<path d="M3235 1170 c-4 -6 -3 -16 3 -22 6 -6 12 -6 17 2 4 6 3 16 -3 22 -6 6
-12 6 -17 -2z"/>
<path d="M3330 1160 c0 -11 7 -20 15 -20 8 0 15 9 15 20 0 11 -7 20 -15 20 -8
0 -15 -9 -15 -20z"/>
<path d="M3425 1170 c-4 -6 -3 -16 3 -22 6 -6 12 -6 17 2 4 6 3 16 -3 22 -6 6
-12 6 -17 -2z"/>
<path d="M2994 1119 c-10 -17 13 -36 27 -22 12 12 4 33 -11 33 -5 0 -12 -5
-16 -11z"/>
<path d="M3184 1119 c-8 -14 11 -33 25 -25 16 10 13 36 -3 36 -8 0 -18 -5 -22
-11z"/>
<path d="M3287 1123 c-12 -11 -8 -23 8 -23 8 0 15 7 15 15 0 16 -12 20 -23 8z"/>
<path d="M2997 1033 c-4 -3 -7 -12 -7 -20 0 -15 26 -18 34 -4 7 11 -18 33 -27
24z"/>
<path d="M1845 2750 c-7 -12 2 -30 16 -30 12 0 12 27 0 35 -5 3 -12 1 -16 -5z"/>
<path d="M1696 2701 c-7 -11 18 -33 27 -24 4 3 7 12 7 20 0 15 -26 18 -34 4z"/>
<path d="M1656 2653 c-11 -11 -6 -23 9 -23 8 0 15 4 15 9 0 13 -16 22 -24 14z"/>
<path d="M1847 2654 c-8 -8 1 -24 14 -24 5 0 9 7 9 15 0 15 -12 20 -23 9z"/>
<path d="M1797 2613 c-4 -3 -7 -12 -7 -20 0 -15 26 -18 34 -4 7 11 -18 33 -27
24z"/>
<path d="M1697 2604 c-9 -10 2 -24 19 -24 8 0 14 7 14 15 0 15 -21 21 -33 9z"/>
<path d="M1985 2500 c3 -5 13 -10 21 -10 8 0 14 5 14 10 0 6 -9 10 -21 10 -11
0 -17 -4 -14 -10z"/>
<path d="M2035 2460 c-10 -17 12 -37 25 -24 8 8 6 15 -4 23 -10 9 -16 9 -21 1z"/>
<path d="M1984 2409 c-8 -14 18 -31 30 -19 9 9 0 30 -14 30 -5 0 -12 -5 -16
-11z"/>
<path d="M2080 2405 c0 -8 7 -15 15 -15 8 0 15 7 15 15 0 8 -7 15 -15 15 -8 0
-15 -7 -15 -15z"/>
<path d="M2030 2355 c0 -8 9 -15 20 -15 11 0 20 7 20 15 0 8 -9 15 -20 15 -11
0 -20 -7 -20 -15z"/>
<path d="M1985 2311 c-7 -12 12 -24 25 -16 11 7 4 25 -10 25 -5 0 -11 -4 -15
-9z"/>
<path d="M1845 2270 c-4 -6 -3 -16 3 -22 6 -6 12 -6 17 2 4 6 3 16 -3 22 -6 6
-12 6 -17 -2z"/>
<path d="M1942 2266 c1 -10 8 -17 13 -17 15 1 12 24 -3 29 -9 3 -13 -2 -10
-12z"/>
<path d="M2034 2269 c-10 -17 13 -36 27 -22 12 12 4 33 -11 33 -5 0 -12 -5
-16 -11z"/>
<path d="M2130 2261 c0 -12 6 -21 16 -21 9 0 14 7 12 17 -5 25 -28 28 -28 4z"/>
<path d="M1795 2220 c-8 -13 4 -32 16 -25 12 8 12 35 0 35 -6 0 -13 -4 -16
-10z"/>
<path d="M1892 2214 c4 -21 22 -23 26 -1 2 10 -3 17 -13 17 -10 0 -15 -6 -13
-16z"/>
<path d="M1984 2219 c-10 -17 13 -36 27 -22 12 12 4 33 -11 33 -5 0 -12 -5
-16 -11z"/>
<path d="M2084 2219 c-3 -6 -2 -15 2 -19 12 -12 38 5 30 19 -9 14 -23 14 -32
0z"/>
<path d="M1847 2173 c-12 -11 -8 -23 8 -23 8 0 15 7 15 15 0 16 -12 20 -23 8z"/>
<path d="M2035 2171 c-7 -12 12 -24 25 -16 11 7 4 25 -10 25 -5 0 -11 -4 -15
-9z"/>
<path d="M1795 2120 c-3 -6 1 -13 10 -16 19 -8 30 0 20 15 -8 14 -22 14 -30 1z"/>
<path d="M1890 2115 c0 -9 5 -15 11 -13 6 2 11 8 11 13 0 5 -5 11 -11 13 -6 2
-11 -4 -11 -13z"/>
<path d="M1980 2115 c0 -10 7 -15 18 -13 21 4 19 22 -2 26 -10 2 -16 -3 -16
-13z"/>
<path d="M2082 2119 c2 -6 8 -10 13 -10 5 0 11 4 13 10 2 6 -4 11 -13 11 -9 0
-15 -5 -13 -11z"/>
<path d="M2177 2124 c-9 -10 2 -24 19 -24 8 0 14 7 14 15 0 15 -21 21 -33 9z"/>
<path d="M1840 2071 c0 -12 6 -21 16 -21 9 0 14 7 12 17 -5 25 -28 28 -28 4z"/>
<path d="M2131 2076 c-12 -14 -5 -26 16 -26 15 0 18 26 4 34 -5 3 -14 0 -20
-8z"/>
<path d="M1940 2064 c0 -9 5 -14 12 -12 18 6 21 28 4 28 -9 0 -16 -7 -16 -16z"/>
<path d="M2032 2068 c5 -15 28 -18 29 -3 0 6 -7 12 -17 13 -10 3 -15 -1 -12
-10z"/>
<path d="M1986 2033 c-11 -11 -6 -23 9 -23 8 0 15 4 15 9 0 13 -16 22 -24 14z"/>
<path d="M2186 2033 c-11 -11 -6 -23 9 -23 8 0 15 4 15 9 0 13 -16 22 -24 14z"/>
<path d="M1840 1976 c0 -21 21 -31 30 -15 5 7 6 17 4 21 -9 14 -34 9 -34 -6z"/>
<path d="M2030 1976 c0 -17 27 -29 35 -16 4 6 3 15 0 20 -9 15 -35 12 -35 -4z"/>
<path d="M1890 1925 c0 -8 7 -15 15 -15 8 0 15 7 15 15 0 8 -7 15 -15 15 -8 0
-15 -7 -15 -15z"/>
<path d="M1987 1934 c-9 -10 2 -24 19 -24 8 0 14 7 14 15 0 15 -21 21 -33 9z"/>
<path d="M2082 1929 c2 -6 8 -10 13 -10 5 0 11 4 13 10 2 6 -4 11 -13 11 -9 0
-15 -5 -13 -11z"/>
<path d="M2177 1934 c-9 -10 2 -24 19 -24 8 0 14 7 14 15 0 15 -21 21 -33 9z"/>
<path d="M2277 1934 c-9 -9 4 -35 14 -28 5 3 9 12 9 20 0 14 -12 19 -23 8z"/>
<path d="M2367 1934 c-9 -10 2 -24 19 -24 8 0 14 7 14 15 0 15 -21 21 -33 9z"/>
<path d="M2030 1874 c0 -9 7 -14 17 -12 25 5 28 28 4 28 -12 0 -21 -6 -21 -16z"/>
<path d="M2320 1875 c0 -8 7 -15 15 -15 8 0 15 7 15 15 0 8 -7 15 -15 15 -8 0
-15 -7 -15 -15z"/>
<path d="M1982 1828 c5 -15 28 -18 29 -3 0 6 -7 12 -17 13 -10 3 -15 -1 -12
-10z"/>
<path d="M2182 1829 c2 -6 8 -10 13 -10 5 0 11 4 13 10 2 6 -4 11 -13 11 -9 0
-15 -5 -13 -11z"/>
<path d="M2370 1832 c0 -14 11 -21 26 -15 8 3 11 9 8 14 -7 11 -34 12 -34 1z"/>
<path d="M2034 1789 c-10 -17 13 -36 27 -22 12 12 4 33 -11 33 -5 0 -12 -5
-16 -11z"/>
<path d="M2135 1790 c-4 -6 -3 -16 3 -22 6 -6 12 -6 17 2 4 6 3 16 -3 22 -6 6
-12 6 -17 -2z"/>
<path d="M2224 1789 c-10 -17 13 -36 27 -22 12 12 4 33 -11 33 -5 0 -12 -5
-16 -11z"/>
<path d="M2320 1786 c0 -21 21 -31 30 -15 5 7 6 17 4 21 -9 14 -34 9 -34 -6z"/>
<path d="M2420 1786 c0 -9 7 -16 16 -16 17 0 14 22 -4 28 -7 2 -12 -3 -12 -12z"/>
<path d="M2087 1743 c-12 -11 -8 -23 8 -23 8 0 15 7 15 15 0 16 -12 20 -23 8z"/>
<path d="M2176 1741 c-7 -11 18 -33 27 -24 4 3 7 12 7 20 0 15 -26 18 -34 4z"/>
<path d="M2277 1744 c-8 -8 3 -34 14 -34 5 0 9 9 9 20 0 19 -11 26 -23 14z"/>
<path d="M2372 1734 c4 -21 22 -23 26 -1 2 10 -3 17 -13 17 -10 0 -15 -6 -13
-16z"/>
<path d="M2464 1739 c-3 -6 -2 -15 2 -19 12 -12 38 5 30 19 -9 14 -23 14 -32
0z"/>
<path d="M2320 1685 c0 -8 7 -15 15 -15 8 0 15 7 15 15 0 8 -7 15 -15 15 -8 0
-15 -7 -15 -15z"/>
<path d="M2515 1691 c-7 -12 12 -24 25 -16 11 7 4 25 -10 25 -5 0 -11 -4 -15
-9z"/>
<path d="M2186 1653 c-12 -12 -6 -33 9 -33 8 0 15 6 15 14 0 17 -14 28 -24 19z"/>
<path d="M2280 1650 c-10 -6 -11 -13 -5 -19 13 -13 36 1 27 16 -5 8 -13 9 -22
3z"/>
<path d="M2376 1653 c-12 -12 -6 -33 9 -33 8 0 15 6 15 14 0 17 -14 28 -24 19z"/>
<path d="M2464 1649 c-10 -17 13 -36 27 -22 12 12 4 33 -11 33 -5 0 -12 -5
-16 -11z"/>
<path d="M2224 1599 c-10 -17 13 -36 27 -22 12 12 4 33 -11 33 -5 0 -12 -5
-16 -11z"/>
<path d="M2325 1600 c-4 -6 -3 -16 3 -22 6 -6 12 -6 17 2 4 6 3 16 -3 22 -6 6
-12 6 -17 -2z"/>
<path d="M2424 1597 c-8 -21 2 -35 16 -21 5 5 6 15 0 24 -8 12 -10 12 -16 -3z"/>
<path d="M2515 1600 c-10 -17 12 -37 25 -24 8 8 6 15 -4 23 -10 9 -16 9 -21 1z"/>
<path d="M2365 1550 c-3 -6 1 -13 10 -16 19 -8 30 0 20 15 -8 14 -22 14 -30 1z"/>
<path d="M2320 1495 c0 -8 7 -15 15 -15 8 0 15 7 15 15 0 8 -7 15 -15 15 -8 0
-15 -7 -15 -15z"/>
<path d="M2510 1495 c0 -10 7 -15 18 -13 21 4 19 22 -2 26 -10 2 -16 -3 -16
-13z"/>
<path d="M2376 1463 c-12 -12 -6 -33 9 -33 8 0 15 6 15 14 0 17 -14 28 -24 19z"/>
<path d="M2474 1457 c-8 -21 2 -35 16 -21 5 5 6 15 0 24 -8 12 -10 12 -16 -3z"/>
<path d="M2562 1448 c6 -18 28 -21 28 -4 0 9 -7 16 -16 16 -9 0 -14 -5 -12
-12z"/>
<path d="M2516 1413 c-12 -12 -5 -23 14 -23 11 0 20 4 20 9 0 11 -26 22 -34
14z"/>
<path d="M2654 1359 c-8 -14 11 -33 25 -25 6 4 11 14 11 22 0 16 -26 19 -36 3z"/>
<path d="M2510 1306 c0 -8 4 -17 9 -20 11 -7 33 18 24 27 -12 12 -33 7 -33 -7z"/>
<path d="M2610 1305 c0 -8 7 -15 15 -15 8 0 15 7 15 15 0 8 -7 15 -15 15 -8 0
-15 -7 -15 -15z"/>
<path d="M2700 1306 c0 -8 4 -17 8 -20 13 -8 35 11 28 23 -10 16 -36 14 -36
-3z"/>
<path d="M2650 1255 c0 -8 9 -15 20 -15 11 0 20 7 20 15 0 8 -9 15 -20 15 -11
0 -20 -7 -20 -15z"/>
<path d="M2710 1204 c0 -9 5 -14 12 -12 18 6 21 28 4 28 -9 0 -16 -7 -16 -16z"/>
<path d="M2657 1165 c-8 -18 11 -31 25 -17 11 11 3 32 -12 32 -4 0 -10 -7 -13
-15z"/>
<path d="M4480 2406 c0 -21 21 -31 30 -15 5 7 6 17 4 21 -9 14 -34 9 -34 -6z"/>
<path d="M4435 2270 c-7 -12 2 -30 16 -30 5 0 9 9 9 20 0 21 -15 27 -25 10z"/>
<path d="M4384 2219 c-10 -17 13 -36 27 -22 12 12 4 33 -11 33 -5 0 -12 -5
-16 -11z"/>
<path d="M4580 2210 c0 -13 5 -20 13 -17 6 2 12 10 12 17 0 7 -6 15 -12 18 -8
2 -13 -5 -13 -18z"/>
<path d="M4525 2170 c-8 -14 3 -30 21 -30 8 0 14 9 14 20 0 21 -24 28 -35 10z"/>
<path d="M4391 2126 c-9 -10 -9 -16 -1 -21 17 -10 37 12 24 25 -8 8 -15 6 -23
-4z"/>
<path d="M3712 2118 c6 -18 28 -21 28 -4 0 9 -7 16 -16 16 -9 0 -14 -5 -12
-12z"/>
<path d="M3802 2118 c7 -19 38 -22 38 -4 0 10 -9 16 -21 16 -12 0 -19 -5 -17
-12z"/>
<path d="M4480 2115 c0 -8 7 -15 15 -15 8 0 15 7 15 15 0 8 -7 15 -15 15 -8 0
-15 -7 -15 -15z"/>
<path d="M4575 2121 c-3 -5 -1 -12 5 -16 12 -7 30 2 30 16 0 12 -27 12 -35 0z"/>
<path d="M3854 2079 c-10 -17 13 -36 27 -22 12 12 4 33 -11 33 -5 0 -12 -5
-16 -11z"/>
<path d="M3953 2075 c-7 -20 2 -29 21 -22 9 4 13 13 10 22 -8 19 -23 19 -31 0z"/>
<path d="M4530 2071 c0 -12 6 -21 16 -21 9 0 14 7 12 17 -5 25 -28 28 -28 4z"/>
<path d="M3760 2072 c0 -14 11 -21 26 -15 8 3 11 9 8 14 -7 11 -34 12 -34 1z"/>
<path d="M3816 2033 c-12 -12 -5 -23 14 -23 11 0 20 4 20 9 0 11 -26 22 -34
14z"/>
<path d="M4485 2030 c-8 -13 4 -32 16 -25 12 8 12 35 0 35 -6 0 -13 -4 -16
-10z"/>
<path d="M4002 2019 c2 -6 8 -10 13 -10 5 0 11 4 13 10 2 6 -4 11 -13 11 -9 0
-15 -5 -13 -11z"/>
<path d="M3857 1983 c-13 -12 -7 -23 13 -23 11 0 20 7 20 15 0 15 -21 21 -33
8z"/>
<path d="M3950 1975 c0 -8 7 -15 15 -15 8 0 15 7 15 15 0 8 -7 15 -15 15 -8 0
-15 -7 -15 -15z"/>
<path d="M4532 1974 c4 -21 22 -23 26 -1 2 10 -3 17 -13 17 -10 0 -15 -6 -13
-16z"/>
<path d="M3905 1931 c-7 -12 12 -24 25 -16 11 7 4 25 -10 25 -5 0 -11 -4 -15
-9z"/>
<path d="M4000 1919 c0 -24 23 -21 28 4 2 10 -3 17 -12 17 -10 0 -16 -9 -16
-21z"/>
<path d="M4190 1925 c0 -8 7 -15 15 -15 8 0 15 7 15 15 0 8 -7 15 -15 15 -8 0
-15 -7 -15 -15z"/>
<path d="M4380 1926 c0 -10 9 -16 21 -16 24 0 21 23 -4 28 -10 2 -17 -3 -17
-12z"/>
<path d="M4480 1925 c0 -10 7 -15 18 -13 21 4 19 22 -2 26 -10 2 -16 -3 -16
-13z"/>
<path d="M4147 1884 c-8 -8 1 -24 14 -24 5 0 9 7 9 15 0 15 -12 20 -23 9z"/>
<path d="M4335 1881 c-7 -12 12 -24 25 -16 11 7 4 25 -10 25 -5 0 -11 -4 -15
-9z"/>
</g>
</svg>
